<svg width="29" height="28" viewBox="0 0 29 28" fill="none" xmlns="http://www.w3.org/2000/svg">
<path fill-rule="evenodd" clip-rule="evenodd" d="M14.9375 28C22.6695 28 28.9375 21.732 28.9375 14C28.9375 6.26801 22.6695 0 14.9375 0C7.20551 0 0.9375 6.26801 0.9375 14C0.9375 21.732 7.20551 28 14.9375 28Z" fill="#006197"/>
<path fill-rule="evenodd" clip-rule="evenodd" d="M28.9375 14C28.9375 6.26801 22.6695 0 14.9375 0C7.20551 0 0.9375 6.26801 0.9375 14C0.9375 20.9878 6.0571 26.7796 12.75 27.8299V18.0469H9.19531V14H12.75V10.9156C12.75 7.40687 14.8401 5.46875 18.038 5.46875C19.5697 5.46875 21.1719 5.74219 21.1719 5.74219V9.1875H19.4065C17.6674 9.1875 17.125 10.2667 17.125 11.3738V14H21.0078L20.3871 18.0469H17.125V27.8299C23.8179 26.7796 28.9375 20.9878 28.9375 14Z" fill="white"/>
</svg>
