<svg width="29" height="28" viewBox="0 0 29 28" fill="none" xmlns="http://www.w3.org/2000/svg">
<path fill-rule="evenodd" clip-rule="evenodd" d="M14.9375 28C22.6695 28 28.9375 21.732 28.9375 14C28.9375 6.26801 22.6695 0 14.9375 0C7.20551 0 0.9375 6.26801 0.9375 14C0.9375 21.732 7.20551 28 14.9375 28Z" fill="white"/>
<path d="M14.9343 7.44127C17.0708 7.44127 17.3216 7.45079 18.1661 7.48889C18.947 7.52381 19.3692 7.65397 19.6518 7.76508C20.0264 7.91111 20.2931 8.08254 20.5724 8.3619C20.8518 8.64127 21.0264 8.90793 21.1692 9.28254C21.2772 9.56508 21.4105 9.9873 21.4454 10.7682C21.4835 11.6127 21.4931 11.8635 21.4931 14C21.4931 16.1365 21.4835 16.3873 21.4454 17.2317C21.4105 18.0127 21.2804 18.4349 21.1692 18.7174C21.0232 19.0921 20.8518 19.3587 20.5724 19.6381C20.2931 19.9174 20.0264 20.092 19.6518 20.2349C19.3692 20.3428 18.947 20.4762 18.1661 20.5111C17.3216 20.5492 17.0708 20.5587 14.9343 20.5587C12.7978 20.5587 12.547 20.5492 11.7026 20.5111C10.9216 20.4762 10.4994 20.346 10.2169 20.2349C9.84226 20.0889 9.5756 19.9174 9.29623 19.6381C9.01687 19.3587 8.84226 19.0921 8.6994 18.7174C8.59147 18.4349 8.45814 18.0127 8.42321 17.2317C8.38512 16.3873 8.3756 16.1365 8.3756 14C8.3756 11.8635 8.38512 11.6127 8.42321 10.7682C8.45814 9.9873 8.58829 9.56508 8.6994 9.28254C8.84544 8.90793 9.01687 8.64127 9.29623 8.3619C9.5756 8.08254 9.84226 7.90793 10.2169 7.76508C10.4994 7.65714 10.9216 7.52381 11.7026 7.48889C12.547 7.44762 12.801 7.44127 14.9343 7.44127ZM14.9343 6C12.7629 6 12.4899 6.00952 11.6359 6.04762C10.7851 6.08571 10.2042 6.22222 9.69623 6.41905C9.16925 6.62222 8.7248 6.89841 8.28036 7.34286C7.83591 7.7873 7.5629 8.23492 7.35655 8.75873C7.15972 9.26666 7.02321 9.84762 6.98512 10.7016C6.94702 11.5524 6.9375 11.8254 6.9375 13.9968C6.9375 16.1682 6.94702 16.4413 6.98512 17.2952C7.02321 18.146 7.15972 18.727 7.35655 19.2381C7.55972 19.7651 7.83591 20.2095 8.28036 20.654C8.7248 21.0984 9.17242 21.3714 9.69623 21.5778C10.2042 21.7746 10.7851 21.9111 11.6391 21.9492C12.4931 21.9873 12.7629 21.9968 14.9375 21.9968C17.1121 21.9968 17.3819 21.9873 18.2359 21.9492C19.0867 21.9111 19.6677 21.7746 20.1788 21.5778C20.7058 21.3746 21.1502 21.0984 21.5946 20.654C22.0391 20.2095 22.3121 19.7619 22.5185 19.2381C22.7153 18.7301 22.8518 18.1492 22.8899 17.2952C22.928 16.4413 22.9375 16.1714 22.9375 13.9968C22.9375 11.8222 22.928 11.5524 22.8899 10.6984C22.8518 9.84762 22.7153 9.26666 22.5185 8.75555C22.3153 8.22857 22.0391 7.78413 21.5946 7.33968C21.1502 6.89524 20.7026 6.62222 20.1788 6.41587C19.6708 6.21905 19.0899 6.08254 18.2359 6.04444C17.3788 6.00952 17.1058 6 14.9343 6Z" fill="#006197"/>
<path d="M14.9341 9.89209C12.6674 9.89209 10.8262 11.7302 10.8262 14C10.8262 16.2699 12.6643 18.108 14.9341 18.108C17.2039 18.108 19.042 16.2699 19.042 14C19.042 11.7302 17.2039 9.89209 14.9341 9.89209ZM14.9341 16.6635C13.4611 16.6635 12.2674 15.4699 12.2674 13.9968C12.2674 12.5238 13.4611 11.3302 14.9341 11.3302C16.4071 11.3302 17.6008 12.5238 17.6008 13.9968C17.6008 15.4699 16.4071 16.6635 14.9341 16.6635Z" fill="#006197"/>
<path d="M19.2048 10.6856C19.7343 10.6856 20.1636 10.2564 20.1636 9.72692C20.1636 9.19743 19.7343 8.76819 19.2048 8.76819C18.6753 8.76819 18.2461 9.19743 18.2461 9.72692C18.2461 10.2564 18.6753 10.6856 19.2048 10.6856Z" fill="#006197"/>
</svg>
