<svg width="29" height="28" viewBox="0 0 29 28" fill="none" xmlns="http://www.w3.org/2000/svg">
<path fill-rule="evenodd" clip-rule="evenodd" d="M14.9375 28C22.6695 28 28.9375 21.732 28.9375 14C28.9375 6.26801 22.6695 0 14.9375 0C7.20551 0 0.9375 6.26801 0.9375 14C0.9375 21.732 7.20551 28 14.9375 28Z" fill="white"/>
<path fill-rule="evenodd" clip-rule="evenodd" d="M21.9636 7.8879C22.7409 8.10806 23.3545 8.7371 23.5591 9.53387C23.9375 10.9806 23.9375 14 23.9375 14C23.9375 14 23.9375 17.0194 23.5693 18.4661C23.3545 19.2734 22.7511 19.9024 21.9739 20.1121C20.5625 20.5 14.9375 20.5 14.9375 20.5C14.9375 20.5 9.3125 20.5 7.91136 20.1121C7.13409 19.8919 6.52045 19.2629 6.31591 18.4661C5.9375 17.0194 5.9375 14 5.9375 14C5.9375 14 5.9375 10.9806 6.30568 9.53387C6.52045 8.72661 7.12386 8.09758 7.90114 7.8879C9.3125 7.5 14.9375 7.5 14.9375 7.5C14.9375 7.5 20.5625 7.5 21.9636 7.8879ZM17.8011 14L13.0966 16.7468V11.2532L17.8011 14Z" fill="#006197"/>
</svg>
